<svg xmlns="http://www.w3.org/2000/svg" width="32" height="32" viewBox="0 0 32 32" fill="none">
  <rect width="32" height="32" fill="#F9F9F9"/>    
  <path d="M20.5 11C21.6 10.8 22.2 10.1 22.4 9C22.5 10 23.3 10.8 24.3 11C23.2 11.2 22.6 11.9 22.4 13C22.3 12.4 22.1 12 21.7 11.6C21.3 11.2 20.9 11 20.5 11Z" fill="currentColor"/>
  <path d="M8 16.7C12.7 15.8 15.5 13 16.3 8.3C16.8 12.8 20.2 16.1 24.5 16.6C19.8 17.5 17 20.3 16.2 25C16 22.9 15.1 21 13.6 19.4C12.1 17.8 10.2 16.9 8 16.7Z" fill="currentColor"/>
  <path d="M7.5 9.6C8.9 9.3 9.8 8.4 10 6.9C10.2 8.4 11.2 9.4 12.6 9.6C11.1 9.8 10.2 10.7 10 12.1C9.9 11.5 9.7 10.9 9.2 10.4C8.7 9.9 8.1 9.7 7.5 9.6Z" fill="currentColor"/>
</svg>